<?xml version="1.0" encoding="utf-8"?>
<!-- Generator: Adobe Illustrator 23.1.0, SVG Export Plug-In . SVG Version: 6.00 Build 0)  -->
<svg version="1.1" id="Layer_1" xmlns="http://www.w3.org/2000/svg" xmlns:xlink="http://www.w3.org/1999/xlink" x="0px" y="0px"
	 viewBox="0 0 150 165.4" style="enable-background:new 0 0 150 165.4;" xml:space="preserve">
<style type="text/css">
	.st0{opacity:0.3;fill:url(#SVGID_1_);enable-background:new    ;}
	.st1{fill:url(#SVGID_2_);}
</style>
<g id="레이어_2">
	<g id="레이어_1-2">
		
			<image style="overflow:visible;enable-background:new    ;" width="625" height="372" xlink:href="31EB919D.png"  transform="matrix(0.24 0 0 0.24 0 77.15)">
		</image>
		
			<image style="overflow:visible;enable-background:new    ;" width="506" height="560" xlink:href="31EB919F.png"  transform="matrix(0.24 0 0 0.24 5.35 1)">
		</image>
		
			<linearGradient id="SVGID_1_" gradientUnits="userSpaceOnUse" x1="27.8774" y1="126.3267" x2="105.2474" y2="60.4067" gradientTransform="matrix(1 0 0 -1 -3.696274e-03 165.8918)">
			<stop  offset="0" style="stop-color:#FFEBE6"/>
			<stop  offset="1" style="stop-color:#FF7D70"/>
		</linearGradient>
		<circle class="st0" cx="48.3" cy="56.9" r="42.3"/>
		
			<linearGradient id="SVGID_2_" gradientUnits="userSpaceOnUse" x1="80.3339" y1="89.1193" x2="117.1439" y2="60.1293" gradientTransform="matrix(1 0 0 -1 0 165.8898)">
			<stop  offset="0" style="stop-color:#FF9A90"/>
			<stop  offset="1" style="stop-color:#CC655C"/>
		</linearGradient>
		<path class="st1" d="M85.7,37.2c10.9,20.7,3,46.3-17.6,57.2c-6.1,3.2-12.9,4.9-19.8,4.9c-0.6,0-1.3,0-1.9,0
			c10.9,20.7,36.6,28.6,57.2,17.6s28.6-36.6,17.6-57.2C114.2,46.4,100.7,37.8,85.7,37.2z"/>
		
			<image style="overflow:visible;enable-background:new    ;" width="507" height="579" xlink:href="31EB919A.png"  transform="matrix(0.24 0 0 0.24 10.15 1)">
		</image>
	</g>
</g>
</svg>
