<?xml version="1.0" encoding="utf-8"?>
<!-- Generator: Adobe Illustrator 23.1.0, SVG Export Plug-In . SVG Version: 6.00 Build 0)  -->
<svg version="1.1" id="Layer_1" xmlns="http://www.w3.org/2000/svg" xmlns:xlink="http://www.w3.org/1999/xlink" x="0px" y="0px"
	 viewBox="0 0 166.1 169.9" style="enable-background:new 0 0 166.1 169.9;" xml:space="preserve">
<style type="text/css">
	.st0{fill:url(#SVGID_1_);}
	.st1{opacity:0.4;fill:url(#SVGID_2_);enable-background:new    ;}
	.st2{fill:url(#SVGID_3_);}
	.st3{opacity:0.4;}
</style>
<g>
	<g id="레이어_1">
		
			<image style="overflow:visible;enable-background:new    ;" width="625" height="372" xlink:href="BB495735.png"  transform="matrix(0.24 0 0 0.24 0 80.66)">
		</image>
		
			<linearGradient id="SVGID_1_" gradientUnits="userSpaceOnUse" x1="61.0673" y1="76.6386" x2="75.8073" y2="41.8486" gradientTransform="matrix(1 0 0 -1 0 169.8898)">
			<stop  offset="0" style="stop-color:#95D5FF"/>
			<stop  offset="1" style="stop-color:#78A5FF"/>
		</linearGradient>
		<polygon class="st0" points="54.6,125.3 88.3,125.3 85.4,103.4 57.5,103.4 		"/>
		
			<image style="overflow:visible;enable-background:new    ;" width="417" height="353" xlink:href="BB495737.png"  transform="matrix(0.24 0 0 0.24 21.41 54.96)">
		</image>
		
			<linearGradient id="SVGID_2_" gradientUnits="userSpaceOnUse" x1="35.3066" y1="135.5563" x2="103.9066" y2="67.5563" gradientTransform="matrix(1 0 0 -1 0 169.8898)">
			<stop  offset="0" style="stop-color:#D1EDFF"/>
			<stop  offset="0.37" style="stop-color:#C5DFFF"/>
			<stop  offset="0.5" style="stop-color:#EDF5FF"/>
			<stop  offset="0.62" style="stop-color:#C1DBFF"/>
			<stop  offset="1" style="stop-color:#B4CDFF"/>
		</linearGradient>
		<path class="st1" d="M24.7,39.3h96c2.8,0,5.2,2.3,5.2,5.2v53.8c0,2.8-2.3,5.2-5.2,5.2h-96c-2.8,0-5.1-2.3-5.1-5.2V44.4
			C19.5,41.6,21.9,39.3,24.7,39.3z"/>
		
			<linearGradient id="SVGID_3_" gradientUnits="userSpaceOnUse" x1="87.08" y1="130.3687" x2="153.45" y2="130.3687" gradientTransform="matrix(1 0 0 -1 0 169.8898)">
			<stop  offset="0" style="stop-color:#95D5FF"/>
			<stop  offset="1" style="stop-color:#78A5FF"/>
		</linearGradient>
		<path class="st2" d="M150.6,37.4h-3.9c-0.7-3.6-2.1-6.9-4.1-9.9l2.6-2.7c1.1-1.1,1.1-3-0.1-4c0,0,0,0,0,0l-3.8-3.6
			c-1.1-1.1-2.9-1.1-4,0.1c0,0,0,0,0,0l-2.5,2.6c-2.7-1.8-5.8-3-9-3.7v-3.6c0-1.6-1.3-2.9-2.9-2.9h-5.2c-1.6,0-2.9,1.3-2.9,2.9
			c0,0,0,0,0,0v3.6c-3.2,0.7-6.3,1.9-9.1,3.7l-2.5-2.6c-1.1-1.1-2.9-1.1-4-0.1l-3.8,3.6c-1.1,1.1-1.2,2.9-0.1,4.1l2.6,2.7
			c-2,3-3.4,6.4-4.1,9.9h-4c-1.2,0-2.3,0.8-2.7,1.9h33.9c2.6,0,4.7,2.1,4.7,4.7c0,0,0,0,0,0v24.9c3-0.6,5.9-1.8,8.6-3.4l2.9,3
			c1.1,1.1,2.9,1.2,4.1,0.1l3.8-3.6c1.1-1.1,1.2-2.9,0.1-4l-2.9-3c2-2.9,3.5-6.2,4.2-9.6h4c1.6,0,2.9-1.3,2.9-2.9v-5.2
			C153.4,38.7,152.2,37.4,150.6,37.4L150.6,37.4z"/>
		
			<image style="overflow:visible;enable-background:new    ;" width="462" height="454" xlink:href="BB495732.png"  transform="matrix(0.24 0 0 0.24 50.93 3.12)">
		</image>
		<g class="st3">
			
				<image style="overflow:visible;enable-background:new    ;" width="479" height="436" xlink:href="BB495733.png"  transform="matrix(0.24 0 0 0.24 51.17 -6.728313e-06)">
			</image>
		</g>
	</g>
</g>
</svg>
