<svg xmlns="http://www.w3.org/2000/svg" viewBox="0 0 35.57 4">
  <defs>
    <style>.cls-1{fill:#a6b1bf;}</style>
  </defs>
  <g id="Layer_2">
    <g>
      <path class="cls-1" d="M.39,2.56A.4.4,0,0,1,0,2.16V.39A.4.4,0,0,1,.39,0a.4.4,0,0,1,.4.39V2.16A.4.4,0,0,1,.39,2.56Z"/>
      <path class="cls-1" d="M.4,4a.41.41,0,0,1-.35-.2A.4.4,0,0,1,.2,3.21l1.53-.88A.39.39,0,1,1,2.12,3L.59,3.89A.35.35,0,0,1,.4,4Z"/>
      <path class="cls-1" d="M3.13,2.37a.49.49,0,0,1-.2-.05L1.4,1.43A.39.39,0,0,1,1.8.75l1.53.88a.39.39,0,0,1,.14.54A.38.38,0,0,1,3.13,2.37Z"/>
      <path class="cls-1" d="M7.87,1.74c.17,0,.37,0,.37.28s-.19.22-.52.26a1.09,1.09,0,0,0-.61.19A.48.48,0,0,0,7,2.85c0,.34.23.54.63.54a.83.83,0,0,0,.62-.22l0,0v.06a.5.5,0,0,0,0,.16h.48A1.14,1.14,0,0,1,8.71,3V2c0-.35-.27-.52-.81-.52S7.05,1.65,7,2h.47C7.52,1.83,7.65,1.74,7.87,1.74ZM7.78,3.1c-.23,0-.35-.09-.35-.27s.23-.3.46-.33a.57.57,0,0,0,.3-.08l.05,0v.26A.42.42,0,0,1,7.78,3.1Z"/>
      <path class="cls-1" d="M9.31,3.34h.47V2.51c0-.42.19-.64.55-.64l.17,0V1.45h-.09a.65.65,0,0,0-.59.39v0H9.76V1.49H9.31Z"/>
      <path class="cls-1" d="M11.73,1.44a.92.92,0,0,0-1,1,.91.91,0,0,0,1,1,.91.91,0,0,0,1-1A.92.92,0,0,0,11.73,1.44Zm0,1.61c-.31,0-.49-.23-.49-.63s.18-.64.49-.64.5.23.5.64S12,3.05,11.73,3.05Z"/>
      <path class="cls-1" d="M13.68,3.11a.79.79,0,0,0,.64.28c.39,0,.8-.3.8-1s-.39-1-.77-1a.8.8,0,0,0-.64.27h0V.63h-.48V3.34h.45Zm.48-.06c-.29,0-.47-.25-.47-.63s.18-.64.47-.64.48.25.48.64S14.45,3.05,14.16,3.05Z"/>
      <path class="cls-1" d="M5.08,3.11a.79.79,0,0,0,.64.28c.39,0,.8-.3.8-1s-.39-1-.77-1a.81.81,0,0,0-.64.27h0V.63H4.63V3.34h.45Zm.49-.06c-.29,0-.48-.25-.48-.63s.18-.64.47-.64S6,2,6,2.42,5.86,3.05,5.57,3.05Z"/>
      <path class="cls-1" d="M15.65,3.34h.48V1.49h-.48Z"/>
      <path class="cls-1" d="M16.74,3.34h.48V.63h-.48Z"/>
      <path class="cls-1" d="M17.84,3.34h.47V.63h-.47Z"/>
      <path class="cls-1" d="M15.89.55a.31.31,0,0,0-.31.3.3.3,0,0,0,.31.3.29.29,0,0,0,.3-.3A.3.3,0,0,0,15.89.55Z"/>
      <path class="cls-1" d="M20.19,3.27V.91H21c.72,0,.89.56.89,1.18S21.74,3.27,21,3.27ZM21,1.14h-.54V3H21c.49,0,.64-.34.64-1S21.48,1.14,21,1.14Z"/>
      <path class="cls-1" d="M23.61,2.77a.63.63,0,0,1-.69.53c-.49,0-.73-.32-.73-.88s.24-.88.73-.88.72.33.72.88V2.5h-1.2c0,.38.15.6.48.6a.4.4,0,0,0,.43-.33Zm-.22-.46c0-.35-.16-.56-.47-.56s-.46.21-.48.56Z"/>
      <path class="cls-1" d="M24.45,3.27,23.8,1.58h.27L24.59,3l.52-1.4h.27l-.65,1.69Z"/>
      <path class="cls-1" d="M27,2.77a.63.63,0,0,1-.68.53c-.5,0-.73-.32-.73-.88s.23-.88.72-.88.73.33.73.88V2.5H25.78c0,.38.16.6.49.6a.4.4,0,0,0,.42-.33Zm-.22-.46c0-.35-.16-.56-.47-.56s-.46.21-.47.56Z"/>
      <path class="cls-1" d="M27.34,3.27V.91h.25V3.27Z"/>
      <path class="cls-1" d="M28.66,3.3c-.49,0-.72-.32-.72-.88s.23-.88.72-.88.73.33.73.88S29.15,3.3,28.66,3.3Zm0-1.55c-.35,0-.47.26-.47.67s.12.68.47.68.48-.26.48-.68S29,1.75,28.66,1.75Z"/>
      <path class="cls-1" d="M30,4h-.24V1.58H30v.27a.52.52,0,0,1,.52-.31c.44,0,.69.3.69.88s-.25.88-.69.88A.52.52,0,0,1,30,3Zm.48-.9c.35,0,.48-.26.48-.68s-.13-.67-.48-.67S30,2,30,2.42,30.09,3.1,30.44,3.1Z"/>
      <path class="cls-1" d="M32.85,2.77a.62.62,0,0,1-.68.53c-.5,0-.73-.32-.73-.88s.23-.88.72-.88.73.33.73.88V2.5h-1.2c0,.38.15.6.48.6a.42.42,0,0,0,.43-.33Zm-.21-.46c0-.35-.16-.56-.48-.56s-.45.21-.47.56Z"/>
      <path class="cls-1" d="M33.47,2.41v.86h-.25V1.58h.25v.3A.47.47,0,0,1,34,1.54h.12v.21H34C33.66,1.75,33.47,2,33.47,2.41Z"/>
      <path class="cls-1" d="M35.51,2v0h-.25V2c0-.15-.13-.27-.37-.27s-.36.12-.36.26.1.22.33.27l.21,0c.35.07.5.21.5.49s-.25.49-.65.49-.65-.2-.65-.49V2.75h.25v.06c0,.18.17.29.4.29s.4-.12.4-.29-.09-.23-.31-.28l-.21,0c-.36-.07-.52-.21-.52-.47s.22-.48.61-.48S35.51,1.74,35.51,2Z"/>
    </g>
  </g>
</svg>
