<?xml version="1.0" encoding="utf-8"?>
<!-- Generator: Adobe Illustrator 23.1.0, SVG Export Plug-In . SVG Version: 6.00 Build 0)  -->
<svg version="1.1" id="Layer_1" xmlns="http://www.w3.org/2000/svg" xmlns:xlink="http://www.w3.org/1999/xlink" x="0px" y="0px"
	 viewBox="0 0 150.2 197.3" style="enable-background:new 0 0 150.2 197.3;" xml:space="preserve">
<style type="text/css">
	.st0{fill:url(#SVGID_1_);}
	.st1{fill:url(#SVGID_2_);}
	.st2{fill:url(#SVGID_3_);}
	.st3{fill:url(#SVGID_4_);}
	.st4{fill:url(#SVGID_5_);}
	.st5{fill:url(#SVGID_6_);}
	.st6{fill:url(#SVGID_7_);}
	.st7{fill:url(#SVGID_8_);}
	.st8{fill:url(#SVGID_9_);}
	.st9{fill:url(#SVGID_10_);}
	.st10{fill:url(#SVGID_11_);}
	.st11{fill:url(#SVGID_12_);}
	.st12{fill:url(#SVGID_13_);}
	.st13{fill:url(#SVGID_14_);}
	.st14{fill:url(#SVGID_15_);}
	.st15{fill:url(#SVGID_16_);}
	.st16{fill:url(#SVGID_17_);}
	.st17{opacity:0.4;fill:url(#SVGID_18_);enable-background:new    ;}
	.st18{opacity:0.4;}
</style>
<g>
	<g id="레이어_1">
		
			<image style="overflow:visible;enable-background:new    ;" width="626" height="372" xlink:href="A5936C2E.png"  transform="matrix(0.24 0 0 0.24 0 108)">
		</image>
		
			<image style="overflow:visible;enable-background:new    ;" width="451" height="567" xlink:href="A5936C32.png"  transform="matrix(0.24 0 0 0.24 19.2 1.92)">
		</image>
		
			<linearGradient id="SVGID_1_" gradientUnits="userSpaceOnUse" x1="85.63" y1="63.1647" x2="104.82" y2="63.1647" gradientTransform="matrix(1 0 0 -1 0 197.8898)">
			<stop  offset="0.31" style="stop-color:#FFD747"/>
			<stop  offset="1" style="stop-color:#FFAD61"/>
		</linearGradient>
		<path class="st0" d="M95.2,138.9c5.2,0,9.5-3.7,9.6-8.4H85.6C85.7,135.2,90,138.9,95.2,138.9z"/>
		
			<linearGradient id="SVGID_2_" gradientUnits="userSpaceOnUse" x1="80.6934" y1="167.1663" x2="114.1834" y2="101.2263" gradientTransform="matrix(1 0 0 -1 0 197.8898)">
			<stop  offset="0.31" style="stop-color:#FFD747"/>
			<stop  offset="1" style="stop-color:#FFAD61"/>
		</linearGradient>
		<path class="st1" d="M95,27.3c-10.1,0-19.8,3.8-27.3,10.6c14.2,6,23.5,19.8,23.6,35.2c0,11.1-4.9,21.7-13.3,28.9
			c1.1,1.3,2,2.7,2.5,4.3c0.8,2.3,1.3,4.6,1.4,7c0.5-0.4,1.1-0.6,1.8-0.6h22.4c0.7,0,1.4,0.2,2,0.7c0.2-2.4,0.6-4.8,1.4-7.1
			c0.8-2.4,2.4-4.5,4.5-6c1.7-1.1,3.4-2.4,5-3.7c9.8-7.2,15.6-18.6,15.6-30.8C134.6,44.5,116.8,27.3,95,27.3z"/>
		
			<linearGradient id="SVGID_3_" gradientUnits="userSpaceOnUse" x1="80.82" y1="81.9735" x2="109.14" y2="81.9735" gradientTransform="matrix(1 0 0 -1 0 197.8898)">
			<stop  offset="0.31" style="stop-color:#FFD747"/>
			<stop  offset="1" style="stop-color:#FFAD61"/>
		</linearGradient>
		<path class="st2" d="M96.3,114.3h-2.4c-3.9-0.3-7.9-0.6-11.8-0.7c0-0.1,0-0.2,0-0.4c-0.7,0.5-1.2,1.3-1.2,2.2v0.4
			c0.1,1.6,1.4,2.8,3,2.8c0,0,0,0,0,0h22.4c1.6,0.1,2.9-1.2,3-2.8c0,0,0,0,0,0v-0.4c0-0.8-0.4-1.6-1-2.1c0,0.1,0,0.1,0,0.2
			C104.2,113.7,100.2,114,96.3,114.3z"/>
		
			<linearGradient id="SVGID_4_" gradientUnits="userSpaceOnUse" x1="56.6973" y1="159.9181" x2="91.8973" y2="90.6081" gradientTransform="matrix(1 0 0 -1 0 197.8898)">
			<stop  offset="0.31" style="stop-color:#FFD747"/>
			<stop  offset="1" style="stop-color:#FFAD61"/>
		</linearGradient>
		<path class="st3" d="M83.8,112.7c-0.6,0-1.3,0.2-1.8,0.6c0,0.1,0,0.2,0,0.4c3.9,0.2,7.9,0.4,11.8,0.7h2.4
			c3.9-0.3,7.9-0.6,11.8-0.8c0-0.1,0-0.1,0-0.2c-0.6-0.5-1.3-0.7-2-0.7L83.8,112.7z"/>
		
			<linearGradient id="SVGID_5_" gradientUnits="userSpaceOnUse" x1="80.82" y1="84.41" x2="109.14" y2="84.41" gradientTransform="matrix(1 0 0 -1 0 197.8898)">
			<stop  offset="0.31" style="stop-color:#FFD747"/>
			<stop  offset="1" style="stop-color:#FFAD61"/>
		</linearGradient>
		<path class="st4" d="M83.8,112.7c-0.6,0-1.3,0.2-1.8,0.6c0,0.1,0,0.2,0,0.4c3.9,0.2,7.9,0.4,11.8,0.7h2.4
			c3.9-0.3,7.9-0.6,11.8-0.8c0-0.1,0-0.1,0-0.2c-0.6-0.5-1.3-0.7-2-0.7L83.8,112.7z"/>
		
			<linearGradient id="SVGID_6_" gradientUnits="userSpaceOnUse" x1="80.84" y1="70.3348" x2="109.16" y2="70.3348" gradientTransform="matrix(1 0 0 -1 0 197.8898)">
			<stop  offset="0.31" style="stop-color:#FFD747"/>
			<stop  offset="1" style="stop-color:#FFAD61"/>
		</linearGradient>
		<path class="st5" d="M104.8,130.4c0,0.1,0,0.1,0,0.2h1.4c1.6,0.1,2.9-1.2,3-2.8c0,0,0,0,0,0v-0.4c-0.1-1.6-1.4-2.8-3-2.8
			c0,0,0,0,0,0h-4C103.8,126.1,104.8,128.2,104.8,130.4z"/>
		
			<linearGradient id="SVGID_7_" gradientUnits="userSpaceOnUse" x1="80.84" y1="70.3345" x2="109.16" y2="70.3345" gradientTransform="matrix(1 0 0 -1 0 197.8898)">
			<stop  offset="0.31" style="stop-color:#FFD747"/>
			<stop  offset="1" style="stop-color:#FFAD61"/>
		</linearGradient>
		<path class="st6" d="M88.2,124.6h-4.4c-1.6-0.1-2.9,1.2-3,2.8c0,0,0,0,0,0v0.4c0.1,1.6,1.4,2.8,3,2.8c0,0,0,0,0,0h1.8
			c0-0.1,0-0.1,0-0.2C85.6,128.2,86.6,126.1,88.2,124.6z"/>
		
			<linearGradient id="SVGID_8_" gradientUnits="userSpaceOnUse" x1="85.62" y1="70.3198" x2="104.7937" y2="70.3198" gradientTransform="matrix(1 0 0 -1 0 197.8898)">
			<stop  offset="0.31" style="stop-color:#FFD747"/>
			<stop  offset="1" style="stop-color:#FFAD61"/>
		</linearGradient>
		<path class="st7" d="M102.2,124.6h-14c-1.6,1.5-2.5,3.6-2.6,5.8c0,0.1,0,0.1,0,0.2h19.2c0-0.1,0-0.1,0-0.2
			C104.8,128.2,103.9,126.1,102.2,124.6z"/>
		
			<linearGradient id="SVGID_9_" gradientUnits="userSpaceOnUse" x1="80.84" y1="70.3198" x2="109.16" y2="70.3198" gradientTransform="matrix(1 0 0 -1 0 197.8898)">
			<stop  offset="0.31" style="stop-color:#FFD747"/>
			<stop  offset="1" style="stop-color:#FFAD61"/>
		</linearGradient>
		<path class="st8" d="M102.2,124.6h-14c-1.6,1.5-2.5,3.6-2.6,5.8c0,0.1,0,0.1,0,0.2h19.2c0-0.1,0-0.1,0-0.2
			C104.8,128.2,103.9,126.1,102.2,124.6z"/>
		
			<linearGradient id="SVGID_10_" gradientUnits="userSpaceOnUse" x1="80.83" y1="76.2748" x2="109.15" y2="76.2748" gradientTransform="matrix(1 0 0 -1 0 197.8898)">
			<stop  offset="0.31" style="stop-color:#FFD747"/>
			<stop  offset="1" style="stop-color:#FFAD61"/>
		</linearGradient>
		<path class="st9" d="M80.8,121.4v0.4c0.1,1.6,1.4,2.8,3,2.8c0,0,0,0,0,0h4.4c4-3.6,10-3.6,14,0h4c1.6,0.1,2.9-1.2,3-2.8
			c0,0,0,0,0,0v-0.4c-0.1-1.6-1.4-2.8-3-2.8c0,0,0,0,0,0H83.8C82.2,118.6,80.9,119.8,80.8,121.4C80.8,121.4,80.8,121.4,80.8,121.4z"
			/>
		
			<linearGradient id="SVGID_11_" gradientUnits="userSpaceOnUse" x1="85.62" y1="74.6699" x2="104.81" y2="74.6699" gradientTransform="matrix(1 0 0 -1 0 197.8898)">
			<stop  offset="0.31" style="stop-color:#FFD747"/>
			<stop  offset="1" style="stop-color:#FFAD61"/>
		</linearGradient>
		<path class="st10" d="M95.2,121.8c-2.6,0-5.1,1-7,2.7h14C100.3,122.8,97.8,121.8,95.2,121.8z"/>
		
			<linearGradient id="SVGID_12_" gradientUnits="userSpaceOnUse" x1="80.83" y1="74.6699" x2="109.15" y2="74.6699" gradientTransform="matrix(1 0 0 -1 0 197.8898)">
			<stop  offset="0.31" style="stop-color:#FFD747"/>
			<stop  offset="1" style="stop-color:#FFAD61"/>
		</linearGradient>
		<path class="st11" d="M95.2,121.8c-2.6,0-5.1,1-7,2.7h14C100.3,122.8,97.8,121.8,95.2,121.8z"/>
		
			<linearGradient id="SVGID_13_" gradientUnits="userSpaceOnUse" x1="104.21" y1="73.3198" x2="104.21" y2="73.3198" gradientTransform="matrix(1 0 0 -1 0 197.8898)">
			<stop  offset="0.31" style="stop-color:#FFD747"/>
			<stop  offset="1" style="stop-color:#FFAD61"/>
		</linearGradient>
		<rect x="104.2" y="122.6" class="st12" width="0" height="4"/>
		
			<linearGradient id="SVGID_14_" gradientUnits="userSpaceOnUse" x1="104.21" y1="73.3198" x2="104.21" y2="73.3198" gradientTransform="matrix(1 0 0 -1 0 197.8898)">
			<stop  offset="0.31" style="stop-color:#FFD747"/>
			<stop  offset="1" style="stop-color:#FFAD61"/>
		</linearGradient>
		<rect x="104.2" y="122.6" class="st13" width="0" height="4"/>
		
			<linearGradient id="SVGID_15_" gradientUnits="userSpaceOnUse" x1="95.2" y1="73.2998" x2="95.2" y2="73.2998" gradientTransform="matrix(1 0 0 -1 0 197.8898)">
			<stop  offset="0.31" style="stop-color:#FFD747"/>
			<stop  offset="1" style="stop-color:#FFAD61"/>
		</linearGradient>
		<rect x="95.2" y="117.6" class="st14" width="0" height="14.1"/>
		
			<linearGradient id="SVGID_16_" gradientUnits="userSpaceOnUse" x1="95.2" y1="73.2998" x2="95.2" y2="73.2998" gradientTransform="matrix(1 0 0 -1 0 197.8898)">
			<stop  offset="0.31" style="stop-color:#FFD747"/>
			<stop  offset="1" style="stop-color:#FFAD61"/>
		</linearGradient>
		<rect x="95.2" y="117.6" class="st15" width="0" height="14.1"/>
		
			<linearGradient id="SVGID_17_" gradientUnits="userSpaceOnUse" x1="95.2" y1="73.2998" x2="95.2" y2="73.2998" gradientTransform="matrix(1 0 0 -1 0 197.8898)">
			<stop  offset="0.31" style="stop-color:#FFD747"/>
			<stop  offset="1" style="stop-color:#FFAD61"/>
		</linearGradient>
		<rect x="95.2" y="117.6" class="st16" width="0" height="14.1"/>
		
			<linearGradient id="SVGID_18_" gradientUnits="userSpaceOnUse" x1="77.2361" y1="142.1957" x2="11.3161" y2="70.5657" gradientTransform="matrix(1 0 0 -1 0 197.8898)">
			<stop  offset="0.31" style="stop-color:#FFFFCF"/>
			<stop  offset="0.87" style="stop-color:#FFBF79"/>
			<stop  offset="1" style="stop-color:#FFBF79"/>
		</linearGradient>
		<path class="st17" d="M51.7,34.5c-21.9,0-39.6,17.3-39.5,38.6c0,12.1,5.8,23.4,15.6,30.6c1.6,1.3,3.3,2.6,5.1,3.7
			c2.1,1.5,3.7,3.6,4.5,6c0.8,2.3,1.3,4.6,1.4,7c-0.7,0.5-1.2,1.3-1.2,2.2v0.4c0.1,1.6,1.4,2.8,3,2.8c0,0,0,0,0,0
			c-1.6-0.1-2.9,1.2-3,2.7c0,0,0,0,0,0v0.4c0.1,1.6,1.4,2.8,3,2.8c0,0,0,0,0,0c-1.6-0.1-2.9,1.2-3,2.7c0,0,0,0,0,0v0.4
			c0.1,1.6,1.4,2.8,3,2.8c0,0,0,0,0,0h1.8c0.1,4.6,4.4,8.4,9.6,8.4s9.5-3.7,9.6-8.4H63c1.6,0.1,2.9-1.2,3-2.8c0,0,0,0,0,0v-0.4
			c-0.1-1.6-1.4-2.8-3-2.8c0,0,0,0,0,0c1.6,0.1,2.9-1.2,3-2.8c0,0,0,0,0,0v-0.4c-0.1-1.6-1.4-2.8-3-2.8c0,0,0,0,0,0
			c1.6,0.1,2.9-1.2,3-2.8c0,0,0,0,0,0v-0.4c0-0.8-0.4-1.6-1-2.1c0.2-2.4,0.7-4.8,1.4-7.1c0.9-2.4,2.4-4.5,4.5-6
			c1.7-1.1,3.4-2.4,5-3.7c9.7-7.2,15.5-18.6,15.4-30.7C91.3,51.7,73.6,34.5,51.7,34.5z"/>
		<g class="st18">
			
				<image style="overflow:visible;enable-background:new    ;" width="435" height="596" xlink:href="A5936C35.png"  transform="matrix(0.24 0 0 0.24 31.68 -6.728313e-06)">
			</image>
		</g>
	</g>
</g>
</svg>
