<?xml version="1.0" encoding="utf-8"?>
<!-- Generator: Adobe Illustrator 23.1.0, SVG Export Plug-In . SVG Version: 6.00 Build 0)  -->
<svg version="1.1" id="Layer_1" xmlns="http://www.w3.org/2000/svg" xmlns:xlink="http://www.w3.org/1999/xlink" x="0px" y="0px"
	 viewBox="0 0 168.7 153.6" style="enable-background:new 0 0 168.7 153.6;" xml:space="preserve">
<style type="text/css">
	.st0{fill:none;}
	.st1{fill:url(#SVGID_1_);}
	.st2{opacity:0.4;fill:url(#SVGID_2_);enable-background:new    ;}
	.st3{fill:#FFFFFF;}
</style>
<g>
	<g id="레이어_1">
		
			<image style="overflow:visible;enable-background:new    ;" width="703" height="351" xlink:href="B502C963.png"  transform="matrix(0.24 0 0 0.24 0 69.34)">
		</image>
		<path class="st0" d="M80.7,77l3.6-13.3c-3.7-1.4-6.5-4.4-7.7-8.2H75L80.7,77z"/>
		<polygon class="st0" points="47.4,77.1 53.1,55.5 41.6,55.5 		"/>
		
			<linearGradient id="SVGID_1_" gradientUnits="userSpaceOnUse" x1="15.11" y1="85.5648" x2="110.07" y2="85.5648" gradientTransform="matrix(1 0 0 -1 0 153.8898)">
			<stop  offset="0" style="stop-color:#A5BDFF"/>
			<stop  offset="0.54" style="stop-color:#B0A1FF"/>
		</linearGradient>
		<path class="st1" d="M84.3,63.7L80.7,77L75,55.5h1.6c-0.4-1.3-0.6-2.6-0.6-3.9v-2.9h-2.8l-2.4-8.9H57.3L55,48.7H39.8l-2.4-8.9
			H23.5l2.6,8.9h-11v6.8h13l12.1,41.4h13.1l10.4-35.8l10.4,35.8h13.1l9.5-32.3H89C87.4,64.6,85.8,64.3,84.3,63.7z M47.4,77.1
			l-5.8-21.6h11.5L47.4,77.1z"/>
		
			<image style="overflow:visible;enable-background:new    ;" width="443" height="404" xlink:href="B502C961.png"  transform="matrix(0.24 0 0 0.24 39.77 3.76)">
		</image>
		
			<linearGradient id="SVGID_2_" gradientUnits="userSpaceOnUse" x1="93.9689" y1="147.7086" x2="170.6889" y2="70.8186" gradientTransform="matrix(1 0 0 -1 0 153.8898)">
			<stop  offset="0" style="stop-color:#DEE7FF"/>
			<stop  offset="0.54" style="stop-color:#E0DAFF"/>
		</linearGradient>
		<path class="st2" d="M151.1,0H89c-7.2,0-13,5.8-13,13v38.6c0,7.2,5.8,13,13,13h43.7L130,79.5l22.3-15h-0.1
			c6.7-0.6,11.8-6.2,11.8-12.9V13C164.1,5.8,158.2,0,151.1,0z"/>
		<circle class="st3" cx="103.6" cy="31.8" r="3.1"/>
		<circle class="st3" cx="120" cy="31.8" r="3.1"/>
		<circle class="st3" cx="136.4" cy="31.8" r="3.1"/>
	</g>
</g>
</svg>
