<svg xmlns="http://www.w3.org/2000/svg" viewBox="0 0 19 4">
  <defs>
    <style>.cls-1{fill:#fff;}</style>
  </defs>
  <g>
    <g>
      <path class="cls-1" d="M.39,2.56A.4.4,0,0,1,0,2.16V.39A.4.4,0,0,1,.39,0a.4.4,0,0,1,.4.39V2.16A.4.4,0,0,1,.39,2.56Z"/>
      <path class="cls-1" d="M.4,4a.41.41,0,0,1-.35-.2A.4.4,0,0,1,.2,3.21l1.53-.88A.39.39,0,1,1,2.12,3L.59,3.89A.35.35,0,0,1,.4,4Z"/>
      <path class="cls-1" d="M3.13,2.37a.49.49,0,0,1-.2-.05L1.4,1.43A.39.39,0,0,1,1.8.75l1.53.88a.39.39,0,0,1,.14.54A.38.38,0,0,1,3.13,2.37Z"/>
      <path class="cls-1" d="M7.87,1.74c.17,0,.37,0,.37.28s-.19.22-.52.26a1.09,1.09,0,0,0-.61.19A.48.48,0,0,0,7,2.85c0,.34.23.54.63.54a.83.83,0,0,0,.62-.22l0,0v.06a.5.5,0,0,0,0,.16h.48A1.14,1.14,0,0,1,8.71,3V2c0-.35-.27-.52-.81-.52S7.05,1.65,7,2h.47C7.52,1.83,7.65,1.74,7.87,1.74ZM7.78,3.1c-.23,0-.35-.09-.35-.27s.23-.3.46-.33a.57.57,0,0,0,.3-.08l.05,0v.26A.42.42,0,0,1,7.78,3.1Z"/>
      <path class="cls-1" d="M9.31,3.34h.47V2.51c0-.42.19-.64.55-.64l.17,0V1.45h-.09a.65.65,0,0,0-.59.39v0H9.76V1.49H9.31Z"/>
      <path class="cls-1" d="M11.73,1.44a.92.92,0,0,0-1,1,.91.91,0,0,0,1,1,.91.91,0,0,0,1-1A.92.92,0,0,0,11.73,1.44Zm0,1.61c-.31,0-.49-.23-.49-.63s.18-.64.49-.64.5.23.5.64S12,3.05,11.73,3.05Z"/>
      <path class="cls-1" d="M13.68,3.11a.79.79,0,0,0,.64.28c.39,0,.8-.3.8-1s-.39-1-.77-1a.8.8,0,0,0-.64.27h0V.63h-.48V3.34h.45Zm.48-.06c-.29,0-.47-.25-.47-.63s.18-.64.47-.64.48.25.48.64S14.45,3.05,14.16,3.05Z"/>
      <path class="cls-1" d="M5.08,3.11a.79.79,0,0,0,.64.28c.39,0,.8-.3.8-1s-.39-1-.77-1a.81.81,0,0,0-.64.27h0V.63H4.63V3.34h.45Zm.49-.06c-.29,0-.48-.25-.48-.63s.18-.64.47-.64S6,2,6,2.42,5.86,3.05,5.57,3.05Z"/>
      <path class="cls-1" d="M15.65,3.34h.48V1.49h-.48Z"/>
      <path class="cls-1" d="M16.74,3.34h.48V.63h-.48Z"/>
      <path class="cls-1" d="M17.84,3.34h.47V.63h-.47Z"/>
      <path class="cls-1" d="M15.89.55a.31.31,0,0,0-.31.3.3.3,0,0,0,.31.3.29.29,0,0,0,.3-.3A.3.3,0,0,0,15.89.55Z"/>
    </g>
  </g>
</svg>
