<?xml version="1.0" encoding="utf-8"?>
<!-- Generator: Adobe Illustrator 23.1.0, SVG Export Plug-In . SVG Version: 6.00 Build 0)  -->
<svg version="1.1" id="Layer_1" xmlns="http://www.w3.org/2000/svg" xmlns:xlink="http://www.w3.org/1999/xlink" x="0px" y="0px"
	 viewBox="0 0 131.2 162.3" style="enable-background:new 0 0 131.2 162.3;" xml:space="preserve">
<style type="text/css">
	.st0{fill:url(#SVGID_1_);}
	.st1{opacity:0.4;fill:url(#SVGID_2_);enable-background:new    ;}
	.st2{fill:#FFFFFF;}
</style>
<linearGradient id="SVGID_1_" gradientUnits="userSpaceOnUse" x1="11.61" y1="124.0498" x2="63.42" y2="124.0498" gradientTransform="matrix(1 0 0 -1 2.19 162.8898)">
	<stop  offset="0" style="stop-color:#00B49D"/>
	<stop  offset="1" style="stop-color:#00B3B9"/>
</linearGradient>
<path class="st0" d="M44.9,50.8l-3.7-3.9c-1.6-1.6-1.6-4.3,0-5.9c0,0,0,0,0,0l5.5-5.3c1.6-1.6,4.3-1.5,5.9,0.1c0,0,0,0,0,0l3.7,3.8
	c2.9-1.9,6-3.3,9.3-4.4c-0.7-2.6-1.8-5.1-3.3-7.3l2.3-2.4c1-1,0.9-2.6-0.1-3.5c0,0,0,0,0,0L61.2,19c-1-1-2.6-0.9-3.5,0.1
	c0,0,0,0,0,0l-2.2,2.3c-2.4-1.6-5.1-2.6-7.9-3.2V15c0-1.4-1.1-2.5-2.5-2.5c0,0,0,0,0,0h-4.5c-1.4,0-2.5,1.1-2.5,2.5c0,0,0,0,0,0v3.1
	c-2.8,0.6-5.5,1.7-7.9,3.2l-2.2-2.3c-1-1-2.5-1-3.5-0.1c0,0,0,0,0,0l-3.3,3.2c-1,1-1,2.5-0.1,3.5c0,0,0,0,0,0l2.3,2.4
	c-1.8,2.6-3,5.6-3.6,8.7h-3.4c-1.4,0-2.5,1.1-2.5,2.5v4.6c0,1.4,1.1,2.5,2.5,2.5h3.5c0.7,3,1.9,5.9,3.7,8.4L21,57.3
	c-1,1-0.9,2.6,0.1,3.5c0,0,0,0,0,0l3.3,3.1c1,1,2.6,0.9,3.5-0.1l2.5-2.7c2.3,1.4,4.9,2.5,7.6,3v0.9h0.9C39.9,60,42,55.1,44.9,50.8z"
	/>
<image style="overflow:visible;enable-background:new    ;" width="461" height="471" xlink:href="426BC12B.png"  transform="matrix(0.21 0 0 0.21 5.93 2.75)">
</image>
<image style="overflow:visible;enable-background:new    ;" width="489" height="489" xlink:href="426BC129.png"  transform="matrix(0.21 0 0 0.21 25.41 21.38)">
</image>
<linearGradient id="SVGID_2_" gradientUnits="userSpaceOnUse" x1="26.74" y1="89.2148" x2="123.16" y2="89.2148" gradientTransform="matrix(1 0 0 -1 2.19 162.8898)">
	<stop  offset="0" style="stop-color:#CAE3B5"/>
	<stop  offset="0.69" style="stop-color:#ACDABC"/>
</linearGradient>
<path class="st1" d="M121.2,65.7h-5.6c-1-5.2-3-10.1-6-14.4l3.8-3.9c1.6-1.6,1.5-4.3-0.1-5.9c0,0,0,0,0,0l-5.5-5.3
	c-1.7-1.6-4.3-1.5-5.9,0.1l-3.7,3.8c-4-2.6-8.5-4.4-13.1-5.4v-5.2c0-2.3-1.9-4.2-4.2-4.2h-7.5c-2.3,0-4.2,1.8-4.2,4.1c0,0,0,0,0,0
	v5.2c-4.7,1-9.1,2.8-13.1,5.4l-3.6-3.8c-1.6-1.7-4.2-1.7-5.9-0.1l-5.5,5.3c-1.7,1.6-1.7,4.2-0.1,5.9c0,0,0,0,0,0l3.8,3.9
	c-2.9,4.4-5,9.3-6,14.4h-5.6c-2.3,0-4.2,1.9-4.2,4.2l0,0v7.6c0,2.3,1.9,4.2,4.1,4.2c0,0,0,0,0,0h5.8c1.1,5,3.2,9.8,6.2,14l-4.2,4.3
	c-1.6,1.7-1.5,4.3,0.1,5.9c0,0,0,0,0,0l5.5,5.3c1.7,1.6,4.3,1.5,5.9-0.1l4.2-4.4c3.9,2.4,8.1,4.1,12.6,5v6.2c0,2.3,1.8,4.2,4.1,4.2
	c0,0,0,0,0,0h7.6c2.3,0,4.2-1.9,4.2-4.2v-6.2c4.4-0.9,8.7-2.6,12.6-5l4.2,4.4c1.6,1.7,4.2,1.7,5.9,0.1l5.5-5.3
	c1.7-1.6,1.7-4.2,0.1-5.9c0,0,0,0,0,0l-4.1-4.3c3-4.2,5-9,6.2-14h5.8c2.3,0,4.2-1.8,4.2-4.1c0,0,0,0,0,0v-7.6
	C125.4,67.6,123.5,65.7,121.2,65.7z"/>
<path class="st2" d="M85.2,76.5c-1.9,4.4-7,6.5-11.4,4.7c-4.4-1.9-6.5-7-4.7-11.4c1.9-4.4,7-6.5,11.4-4.7c3.2,1.4,5.3,4.5,5.4,8
	C85.9,74.3,85.6,75.5,85.2,76.5"/>
<image style="overflow:visible;enable-background:new    ;" width="455" height="459" xlink:href="426BC12F.png"  transform="matrix(0.21 0 0 0.21 1.07 -6.728313e-06)">
</image>
<image style="overflow:visible;enable-background:new    ;" width="620" height="354" xlink:href="426BC128.png"  transform="matrix(0.21 0 0 0.21 0 87.41)">
</image>
</svg>
